<svg xmlns="http://www.w3.org/2000/svg" xmlns:xlink="http://www.w3.org/1999/xlink" width="512" zoomAndPan="magnify" viewBox="0 0 384 383.999986" height="512" preserveAspectRatio="xMidYMid meet" version="1.0"><defs><g/></defs><rect x="-38.4" width="460.8" fill="#ffffff" y="-38.399999" height="460.799983" fill-opacity="1"/><rect x="-38.4" width="460.8" fill="#000000" y="-38.399999" height="460.799983" fill-opacity="1"/><g fill="#ffffff" fill-opacity="1"><g transform="translate(8.625689, 278.708441)"><g><path d="M 171.375 -196.484375 L 171.375 -103.625 L 124.609375 -196.484375 Z M 52.46875 0 L 52.46875 -196.484375 L 122.484375 -196.484375 L 122.484375 0 Z M 3.859375 -196.484375 L 50.34375 -196.484375 L 3.859375 -103.625 Z M 3.859375 -196.484375 "/></g></g></g><g fill="#ff3131" fill-opacity="1"><g transform="translate(183.862978, 278.708441)"><g><path d="M 95.25 0 L 95.25 -196.359375 C 96.40625 -196.535156 97.625 -196.644531 98.90625 -196.6875 C 100.1875 -196.726562 102.023438 -196.75 104.421875 -196.75 C 124.785156 -196.75 139.816406 -192.695312 149.515625 -184.59375 C 159.222656 -176.488281 164.078125 -163.9375 164.078125 -146.9375 C 164.078125 -130.632812 159.46875 -118.34375 150.25 -110.0625 C 141.039062 -101.78125 127.40625 -97.640625 109.34375 -97.640625 C 107.207031 -97.640625 103.660156 -97.816406 98.703125 -98.171875 L 97.90625 -98.171875 L 175.765625 0 Z M 8.765625 0 L 8.765625 -196.484375 L 78.640625 -196.484375 L 78.640625 0 Z M 8.765625 0 "/></g></g></g></svg>