<svg xmlns="http://www.w3.org/2000/svg" xmlns:xlink="http://www.w3.org/1999/xlink" width="370" zoomAndPan="magnify" viewBox="0 0 277.5 104.999996" height="140" preserveAspectRatio="xMidYMid meet" version="1.0"><defs><g/></defs><g fill="#000000" fill-opacity="1"><g transform="translate(17.785056, 72.388565)"><g><path d="M 36.46875 -41.8125 L 36.46875 -22.046875 L 26.515625 -41.8125 Z M 11.171875 0 L 11.171875 -41.8125 L 26.0625 -41.8125 L 26.0625 0 Z M 0.8125 -41.8125 L 10.71875 -41.8125 L 0.8125 -22.046875 Z M 0.8125 -41.8125 "/></g></g></g><g fill="#ff3131" fill-opacity="1"><g transform="translate(112.133891, 72.388557)"><g><path d="M 20.265625 0 L 20.265625 -41.78125 C 20.515625 -41.8125 20.773438 -41.832031 21.046875 -41.84375 C 21.316406 -41.851562 21.707031 -41.859375 22.21875 -41.859375 C 26.550781 -41.859375 29.75 -40.992188 31.8125 -39.265625 C 33.875 -37.546875 34.90625 -34.878906 34.90625 -31.265625 C 34.90625 -27.796875 33.925781 -25.179688 31.96875 -23.421875 C 30.007812 -21.660156 27.109375 -20.78125 23.265625 -20.78125 C 22.804688 -20.78125 22.050781 -20.816406 21 -20.890625 L 20.828125 -20.890625 L 37.390625 0 Z M 1.859375 0 L 1.859375 -41.8125 L 16.734375 -41.8125 L 16.734375 0 Z M 1.859375 0 "/></g></g></g><g fill="#ff3131" fill-opacity="1"><g transform="translate(47.231144, 72.409463)"><g><path d="M 17.523438 -8.746094 L 17.523438 -10.03125 C 17.523438 -13.386719 16.628906 -15.089844 14.921875 -16.65625 C 13.582031 -17.886719 11.542969 -18.585938 9.753906 -18.585938 C 5.140625 -18.585938 1.957031 -15.121094 1.957031 -10.367188 L 1.957031 -8.132812 C 1.957031 -5.503906 2.542969 -3.773438 3.996094 -2.179688 C 5.367188 -0.699219 7.433594 0.28125 9.921875 0.28125 C 13.191406 0.28125 15.707031 -1.453125 17.214844 -4.75 L 16.683594 -5.003906 C 15.089844 -1.761719 12.941406 -0.308594 10.003906 -0.308594 C 7.824219 -0.308594 6.457031 -1.339844 5.8125 -2.960938 C 5.339844 -4.164062 5.28125 -5.703125 5.28125 -7.769531 L 5.28125 -8.746094 Z M 14.226562 -9.335938 L 5.28125 -9.335938 L 5.28125 -11.515625 C 5.28125 -14.195312 5.730469 -15.566406 6.59375 -16.542969 C 7.40625 -17.46875 8.441406 -17.996094 9.753906 -17.996094 C 11.179688 -17.996094 12.351562 -17.355469 13.078125 -16.347656 C 13.945312 -15.175781 14.226562 -13.917969 14.226562 -11.289062 Z M 14.226562 -9.335938 "/></g></g></g><g fill="#ff3131" fill-opacity="1"><g transform="translate(66.150473, 72.409463)"><g><path d="M 17.859375 0 L 17.859375 -0.585938 L 16.179688 -0.585938 L 10.535156 -10.507812 L 14.757812 -17.746094 L 16.824219 -17.746094 L 16.824219 -18.332031 L 12.15625 -18.332031 L 12.15625 -17.746094 L 14.058594 -17.746094 L 10.171875 -11.152344 L 6.457031 -17.746094 L 8.273438 -17.746094 L 8.273438 -18.332031 L 0.839844 -18.332031 L 0.839844 -17.746094 L 2.65625 -17.746094 L 8.1875 -7.851562 L 3.941406 -0.585938 L 1.984375 -0.585938 L 1.984375 0 L 6.652344 0 L 6.652344 -0.585938 L 4.667969 -0.585938 L 8.550781 -7.210938 L 12.242188 -0.585938 L 10.367188 -0.585938 L 10.367188 0 Z M 17.859375 0 "/></g></g></g><g fill="#ff3131" fill-opacity="1"><g transform="translate(84.846233, 72.409463)"><g><path d="M 9.78125 -2.347656 C 9.699219 -1.371094 9.054688 -0.753906 8.214844 -0.753906 C 7.460938 -0.753906 6.652344 -1.285156 6.652344 -2.628906 L 6.652344 -17.746094 L 9.808594 -17.746094 L 9.808594 -18.332031 L 6.652344 -18.332031 L 6.652344 -25.710938 L 3.324219 -25.710938 L 3.324219 -18.332031 L 1.398438 -18.332031 L 1.398438 -17.746094 L 3.324219 -17.746094 L 3.324219 -4.582031 C 3.324219 -3.382812 3.4375 -2.375 3.800781 -1.621094 C 4.445312 -0.308594 5.589844 0.28125 7.351562 0.28125 C 9.109375 0.28125 10.3125 -0.867188 10.394531 -2.347656 Z M 9.78125 -2.347656 "/></g></g></g><g fill="#000000" fill-opacity="1"><g transform="translate(148.31868, 72.409463)"><g><path d="M 17.523438 -8.746094 L 17.523438 -10.03125 C 17.523438 -13.386719 16.628906 -15.089844 14.921875 -16.65625 C 13.582031 -17.886719 11.542969 -18.585938 9.753906 -18.585938 C 5.140625 -18.585938 1.957031 -15.121094 1.957031 -10.367188 L 1.957031 -8.132812 C 1.957031 -5.503906 2.542969 -3.773438 3.996094 -2.179688 C 5.367188 -0.699219 7.433594 0.28125 9.921875 0.28125 C 13.191406 0.28125 15.707031 -1.453125 17.214844 -4.75 L 16.683594 -5.003906 C 15.089844 -1.761719 12.941406 -0.308594 10.003906 -0.308594 C 7.824219 -0.308594 6.457031 -1.339844 5.8125 -2.960938 C 5.339844 -4.164062 5.28125 -5.703125 5.28125 -7.769531 L 5.28125 -8.746094 Z M 14.226562 -9.335938 L 5.28125 -9.335938 L 5.28125 -11.515625 C 5.28125 -14.195312 5.730469 -15.566406 6.59375 -16.542969 C 7.40625 -17.46875 8.441406 -17.996094 9.753906 -17.996094 C 11.179688 -17.996094 12.351562 -17.355469 13.078125 -16.347656 C 13.945312 -15.175781 14.226562 -13.917969 14.226562 -11.289062 Z M 14.226562 -9.335938 "/></g></g></g><g fill="#000000" fill-opacity="1"><g transform="translate(167.238009, 72.409463)"><g><path d="M 15.734375 -7.183594 C 15.734375 -5.085938 15.707031 -3.464844 14.589844 -1.957031 C 14 -1.171875 12.882812 -0.308594 11.289062 -0.308594 C 9.472656 -0.308594 7.628906 -1.507812 6.792969 -3.578125 L 6.792969 -11.515625 C 6.792969 -14.195312 7.238281 -15.566406 8.105469 -16.542969 C 8.914062 -17.46875 9.949219 -17.996094 11.261719 -17.996094 C 12.6875 -17.996094 13.863281 -17.355469 14.589844 -16.347656 C 15.453125 -15.175781 15.734375 -13.917969 15.734375 -11.289062 Z M 3.464844 6.820312 L 1.535156 6.820312 L 1.535156 7.40625 L 6.792969 7.40625 L 6.792969 -2.320312 C 7.65625 -0.839844 9.445312 0.28125 11.429688 0.28125 C 13.609375 0.28125 15.707031 -0.753906 17.046875 -2.265625 C 18.390625 -3.773438 19.058594 -5.703125 19.058594 -8.132812 L 19.058594 -10.089844 C 19.058594 -12.773438 18.472656 -14.503906 16.9375 -16.179688 C 15.511719 -17.71875 13.332031 -18.585938 11.261719 -18.585938 C 7.882812 -18.585938 4.835938 -16.433594 3.882812 -13.304688 C 3.550781 -12.242188 3.464844 -11.375 3.464844 -10.171875 Z M 3.464844 6.820312 "/></g></g></g><g fill="#000000" fill-opacity="1"><g transform="translate(188.253278, 72.409463)"><g><path d="M 8.941406 0 L 8.941406 -0.585938 L 7.070312 -0.585938 L 7.070312 -25.710938 L 1.816406 -25.710938 L 1.816406 -25.125 L 3.746094 -25.125 L 3.746094 -0.585938 L 1.816406 -0.585938 L 1.816406 0 Z M 8.941406 0 "/></g></g></g><g fill="#000000" fill-opacity="1"><g transform="translate(197.335676, 72.409463)"><g><path d="M 14.226562 -3.578125 C 13.386719 -1.507812 11.542969 -0.308594 9.726562 -0.308594 C 8.132812 -0.308594 7.015625 -1.171875 6.429688 -1.957031 C 5.308594 -3.464844 5.28125 -5.085938 5.28125 -7.183594 L 5.28125 -11.515625 C 5.28125 -14.195312 5.730469 -15.566406 6.59375 -16.542969 C 7.40625 -17.46875 8.441406 -17.996094 9.753906 -17.996094 C 11.179688 -17.996094 12.351562 -17.355469 13.078125 -16.347656 C 13.945312 -15.175781 14.226562 -13.917969 14.226562 -11.289062 Z M 17.550781 -10.089844 C 17.550781 -12.773438 16.964844 -14.503906 15.425781 -16.179688 C 14 -17.71875 11.820312 -18.585938 9.753906 -18.585938 C 6.371094 -18.585938 3.324219 -16.433594 2.375 -13.304688 C 2.039062 -12.242188 1.957031 -11.375 1.957031 -10.171875 L 1.957031 -8.132812 C 1.957031 -5.703125 2.628906 -3.773438 3.96875 -2.265625 C 5.308594 -0.753906 7.40625 0.28125 9.585938 0.28125 C 11.570312 0.28125 13.386719 -0.839844 14.253906 -2.320312 L 14.253906 0 L 19.480469 0 L 19.480469 -0.585938 L 17.550781 -0.585938 Z M 17.550781 -10.089844 "/></g></g></g><g fill="#000000" fill-opacity="1"><g transform="translate(217.84791, 72.409463)"><g><path d="M 14.058594 -3.941406 C 13.722656 -1.984375 12.15625 -0.308594 9.867188 -0.308594 C 7.964844 -0.308594 6.625 -1.3125 5.953125 -2.710938 C 5.394531 -3.882812 5.28125 -5.003906 5.28125 -7.714844 L 5.28125 -11.738281 C 5.28125 -13.832031 5.617188 -15.285156 6.316406 -16.210938 C 7.210938 -17.410156 8.214844 -17.996094 9.867188 -17.996094 C 11.820312 -17.996094 13.777344 -16.433594 13.777344 -14.308594 L 13.777344 -14.058594 L 14.363281 -14.058594 L 14.363281 -18.527344 L 13.777344 -18.527344 L 13.777344 -16.601562 C 12.910156 -17.800781 11.484375 -18.585938 9.53125 -18.585938 C 7.265625 -18.585938 5.226562 -17.523438 3.914062 -16.015625 C 2.628906 -14.558594 1.957031 -12.828125 1.957031 -10.117188 L 1.957031 -8.160156 C 1.957031 -5.5625 2.542969 -3.855469 3.882812 -2.320312 C 5.367188 -0.613281 7.65625 0.308594 9.835938 0.308594 C 12.324219 0.308594 14.28125 -1.371094 14.699219 -3.941406 Z M 14.058594 -3.941406 "/></g></g></g><g fill="#000000" fill-opacity="1"><g transform="translate(233.581417, 72.409463)"><g><path d="M 17.523438 -8.746094 L 17.523438 -10.03125 C 17.523438 -13.386719 16.628906 -15.089844 14.921875 -16.65625 C 13.582031 -17.886719 11.542969 -18.585938 9.753906 -18.585938 C 5.140625 -18.585938 1.957031 -15.121094 1.957031 -10.367188 L 1.957031 -8.132812 C 1.957031 -5.503906 2.542969 -3.773438 3.996094 -2.179688 C 5.367188 -0.699219 7.433594 0.28125 9.921875 0.28125 C 13.191406 0.28125 15.707031 -1.453125 17.214844 -4.75 L 16.683594 -5.003906 C 15.089844 -1.761719 12.941406 -0.308594 10.003906 -0.308594 C 7.824219 -0.308594 6.457031 -1.339844 5.8125 -2.960938 C 5.339844 -4.164062 5.28125 -5.703125 5.28125 -7.769531 L 5.28125 -8.746094 Z M 14.226562 -9.335938 L 5.28125 -9.335938 L 5.28125 -11.515625 C 5.28125 -14.195312 5.730469 -15.566406 6.59375 -16.542969 C 7.40625 -17.46875 8.441406 -17.996094 9.753906 -17.996094 C 11.179688 -17.996094 12.351562 -17.355469 13.078125 -16.347656 C 13.945312 -15.175781 14.226562 -13.917969 14.226562 -11.289062 Z M 14.226562 -9.335938 "/></g></g></g><g fill="#000000" fill-opacity="1"><g transform="translate(252.500746, 72.409463)"><g><path d="M 6.792969 -18.332031 L 1.535156 -18.332031 L 1.535156 -17.746094 L 3.464844 -17.746094 L 3.464844 -0.585938 L 1.535156 -0.585938 L 1.535156 0 L 8.886719 0 L 8.886719 -0.585938 L 6.792969 -0.585938 L 6.792969 -15.34375 C 7.65625 -16.90625 9.109375 -17.96875 10.257812 -17.96875 C 10.535156 -17.96875 10.730469 -17.914062 10.789062 -17.886719 C 9.894531 -17.773438 9.222656 -16.964844 9.222656 -16.015625 C 9.222656 -14.894531 10.0625 -14.058594 11.179688 -14.058594 C 12.324219 -14.058594 13.164062 -14.953125 13.164062 -16.125 C 13.164062 -17.523438 12.015625 -18.585938 10.453125 -18.585938 C 9 -18.585938 7.574219 -17.578125 6.792969 -16.320312 Z M 6.792969 -18.332031 "/></g></g></g></svg>